<?xml version="1.0" encoding="utf-8"?>
<!-- Generator: Adobe Illustrator 26.0.0, SVG Export Plug-In . SVG Version: 6.00 Build 0)  -->
<svg version="1.1" xmlns="http://www.w3.org/2000/svg" xmlns:xlink="http://www.w3.org/1999/xlink" x="0px" y="0px"
	 viewBox="0 0 32 32" style="enable-background:new 0 0 32 32;" xml:space="preserve">
<style type="text/css">
	.st0{fill-rule:evenodd;clip-rule:evenodd;fill:#FFFFFF;}
	.st1{fill-rule:evenodd;clip-rule:evenodd;fill:#C22620;}
</style>
<g id="New_Layer">
	<g>
		<path class="st1" d="M14.4,4.7c-0.8,0.1-2.1,0.4-2.8,0.6c-0.2,0.1-0.4,0.2-0.5,0.2c-0.6,0.2-1.7,0.9-2.5,1.4c-0.6,0.4-1.6,1.4-2,2
			C6.6,9,6.5,9.2,6.5,9.2c-1.1,1.4-1.9,3.3-2.2,5.3c-0.1,0.7-0.1,2.2,0,3c0.2,1.7,0.7,3,1.7,4.6c0.1,0.2,0.2,0.2,0.3,0.2
			c0.3,0,1.1-0.3,1.9-0.5c0.9-0.3,1-0.3,1-0.3c0,0,0-0.1-0.1-0.2c-0.3-0.3-0.8-1.1-1-1.6c-0.3-0.6-0.5-1.1-0.7-1.9
			c-0.2-0.8-0.2-2.1-0.1-3c0.4-2.7,2.1-5.1,4.6-6.3c1.2-0.6,2.3-0.9,3.8-0.9c0.9,0,1,0,1.8,0.2c1.5,0.3,2.7,1,3.8,1.9
			c0.5,0.5,0.5,0.4,0.9,0.9c0.8,0.9,1.4,2.2,1.7,3.3c0,0.2,0.1,0.4,0.1,0.4c0,0,1-0.7,1.3-1c0.6-0.5,1.1-1,1.1-1.1
			c0-0.1-0.4-1.1-0.7-1.6c-0.8-1.4-1.8-2.6-3-3.5c-0.5-0.4-1.3-0.9-1.3-0.9c0,0-0.2-0.1-0.4-0.2c-0.6-0.4-1.3-0.6-2.5-1
			C17.4,4.7,15.6,4.6,14.4,4.7z"/>
		<path class="st1" d="M26.7,6.8c-0.4,0-2.5,0.4-2.7,0.4c-0.2,0.1,0,0,1.9-0.1c1.7-0.1,2.6,0,3.3,0.3c0.3,0.1,0.4,0.2,0.6,0.5
			c1.1,1.1,0.4,2.9-2.4,5.3c-1.9,1.7-4.9,3.6-8.3,5.3c-0.6,0.3-1.3,0.6-1.4,0.7c-0.1,0-0.4,0.2-0.6,0.3c-0.2,0.1-0.4,0.2-0.4,0.2
			c0,0-0.2,0.1-0.5,0.2c-0.8,0.3-0.9,0.4-1.6,0.6c-0.3,0.1-0.6,0.2-0.8,0.3c-0.2,0.1-0.6,0.2-0.9,0.3c-0.3,0.1-0.6,0.2-0.7,0.2
			c-0.1,0-0.3,0.1-0.5,0.2c-0.2,0.1-0.5,0.2-0.7,0.2c-0.5,0.2-1.5,0.4-2.5,0.6c-1.9,0.4-3.1,0.5-4.3,0.5c-1.3-0.1-2.1-0.3-2.5-0.7
			c-0.3-0.3-0.3-0.4-0.3-0.8c-0.1-0.9,0.3-1.7,1.7-3.3c0.3-0.3,0.6-0.7,0.6-0.7C3.8,17.1,3.9,17,4,16.9c0.4-0.5-2.2,2-2.7,2.7
			c-1.4,1.8-1.6,3.1-0.8,3.9c0.2,0.2,0.7,0.5,1.1,0.6c0.1,0,0.3,0.1,0.4,0.1c0.3,0.1,1.6,0.1,2.2,0.1c1.1-0.1,1.7-0.1,3.9-0.6
			c0.1,0,0.2-0.1,0.3-0.1c0,0,0.2-0.1,0.4-0.1c0.8-0.2,3.6-1,4-1.2c0.1,0,0.4-0.2,0.8-0.3c0.4-0.1,0.7-0.3,0.8-0.3
			c0.1-0.1,0.2-0.1,0.6-0.2c0.1,0,0.3-0.1,0.4-0.2c0.1,0,0.2-0.1,0.3-0.1c0.1,0,0.2-0.1,0.3-0.1c0.1-0.1,0.3-0.1,0.3-0.1
			c0,0,0.2-0.1,0.4-0.2c0.2-0.1,0.4-0.2,0.4-0.2c0,0,0.2-0.1,0.4-0.2c0.2-0.1,0.5-0.2,0.6-0.3c1.2-0.5,4.1-2,5-2.6
			c0.2-0.1,0.5-0.3,0.6-0.4c0.1-0.1,0.2-0.1,0.2-0.2c0,0,0,0,0.1,0c0,0,0.9-0.6,1.1-0.7c0,0,0.1-0.1,0.1-0.1c0,0,0.3-0.2,1.2-0.8
			c1.1-0.8,2-1.5,3-2.4c0.4-0.4,0.6-0.6,1.2-1.2c0.3-0.4,0.9-1.2,1.1-1.7C32.3,8.8,32,7.8,31,7.3c-0.8-0.4-1.5-0.5-3-0.5
			C27.4,6.8,26.8,6.8,26.7,6.8z"/>
		<path class="st1" d="M26.3,16.1c-0.3,0.3-0.6,0.5-0.7,0.6c-0.1,0-0.2,0.1-0.2,0.2c-0.1,0-0.4,0.3-0.8,0.6l-0.7,0.5l-0.1,0.5
			c-0.5,1.9-1.8,3.6-3.4,4.7c-0.4,0.2-0.7,0.4-0.7,0.4s-0.2,0.1-0.5,0.2c-1,0.5-2,0.7-3.2,0.8c-1.2,0-2.1-0.1-3.1-0.5
			c-0.9-0.4-0.8-0.3-1.3-0.1c-0.2,0.1-0.4,0.2-0.4,0.2c0,0-0.2,0.1-0.3,0.1c-0.3,0.1-1.5,0.5-1.9,0.6c-0.1,0-0.3,0.1-0.3,0.1
			c0,0,0.7,0.6,1,0.8c0.1,0.1,0.3,0.2,0.3,0.2c0.1,0,0.3,0.2,0.5,0.3c0.2,0.1,0.4,0.2,0.5,0.2c0.4,0.3,2.1,0.7,2.9,0.9
			c0.7,0.1,2.1,0.1,2.9,0.1c0.6-0.1,1.5-0.2,1.8-0.3c0.1,0,0.3-0.1,0.4-0.1c0.2,0,0.4-0.1,0.5-0.2c0.1,0,0.3-0.1,0.4-0.2
			c1.2-0.4,2.8-1.5,3.8-2.5c1-1,1.6-1.8,2.2-3c0.6-1.2,0.9-2.3,1.1-3.5c0.1-0.6,0.1-1.8,0-1.8C26.9,15.6,26.6,15.8,26.3,16.1z"/>
	</g>
</g>
<g id="MasterLayer_1">
</g>
</svg>
